<svg xmlns="http://www.w3.org/2000/svg" width="400" height="124" viewBox="0 0 400 124">
  <defs>
    <style>
      @import url('https://fonts.googleapis.com/css2?family=Playfair+Display:ital,wght@0,800;1,400&amp;family=DM+Sans:wght@500&amp;display=swap');
    </style>
    <linearGradient id="gG" x1="0%" y1="0%" x2="100%" y2="100%">
      <stop offset="0%"   stop-color="#E8C97A"/>
      <stop offset="50%"  stop-color="#C9A84C"/>
      <stop offset="100%" stop-color="#A8872E"/>
    </linearGradient>
    <linearGradient id="nG" x1="0%" y1="0%" x2="100%" y2="100%">
      <stop offset="0%"   stop-color="#122848"/>
      <stop offset="100%" stop-color="#0B1F3A"/>
    </linearGradient>
    <radialGradient id="rG" cx="40%" cy="35%">
      <stop offset="0%"   stop-color="#FFFFFF" stop-opacity="0.12"/>
      <stop offset="100%" stop-color="#FFFFFF" stop-opacity="0"/>
    </radialGradient>
    <linearGradient id="ruleG" x1="0%" y1="0%" x2="100%" y2="0%">
      <stop offset="0%"   stop-color="#C9A84C" stop-opacity="0.55"/>
      <stop offset="100%" stop-color="#C9A84C" stop-opacity="0"/>
    </linearGradient>
  </defs>

  <!-- Background -->
  <rect width="400" height="124" fill="#0B1F3A"/>

  <!-- ── MARK ── -->
  <polygon points="60,12 103.3,37 103.3,87 60,112 16.7,87 16.7,37"
    fill="none" stroke="#C9A84C" stroke-width="0.6" stroke-opacity="0.35"/>
  <polygon points="60,12 103.3,37 103.3,87 60,112 16.7,87 16.7,37"
    fill="none" stroke="url(#gG)" stroke-width="1.8" stroke-linejoin="round"/>
  <polygon points="60,18 98.1,40 98.1,84 60,106 21.9,84 21.9,40" fill="url(#nG)"/>
  <polygon points="60,18 98.1,40 98.1,84 60,106 21.9,84 21.9,40" fill="url(#rG)"/>
  <polygon points="60,24 92.9,43 92.9,81 60,100 27.1,81 27.1,43"
    fill="none" stroke="#C9A84C" stroke-width="0.7" stroke-opacity="0.45"
    stroke-dasharray="2.8 2.4" stroke-linejoin="round"/>
  <polygon points="60,20.8 62,24 60,27.2 58,24"         fill="#C9A84C" opacity="0.75"/>
  <polygon points="92.9,39.8 94.9,43 92.9,46.2 90.9,43" fill="#C9A84C" opacity="0.75"/>
  <polygon points="92.9,77.8 94.9,81 92.9,84.2 90.9,81" fill="#C9A84C" opacity="0.75"/>
  <polygon points="60,96.8 62,100 60,103.2 58,100"       fill="#C9A84C" opacity="0.75"/>
  <polygon points="27.1,77.8 29.1,81 27.1,84.2 25.1,81"  fill="#C9A84C" opacity="0.75"/>
  <polygon points="27.1,39.8 29.1,43 27.1,46.2 25.1,43"  fill="#C9A84C" opacity="0.75"/>
  <line x1="60" y1="34" x2="60" y2="42" stroke="#C9A84C" stroke-width="0.9" stroke-opacity="0.5"/>
  <line x1="60" y1="82" x2="60" y2="90" stroke="#C9A84C" stroke-width="0.9" stroke-opacity="0.5"/>
  <path d="M 53 53 C 50 46, 70 44, 67 53" fill="none" stroke="#C9A84C" stroke-width="2.4" stroke-linecap="round"/>
  <path d="M 67 53 C 71 59, 49 65, 53 71" fill="none" stroke="#C9A84C" stroke-width="2.4" stroke-linecap="round"/>
  <path d="M 53 71 C 50 78, 70 80, 67 71" fill="none" stroke="#C9A84C" stroke-width="2.4" stroke-linecap="round"/>
  <line x1="41" y1="62" x2="49" y2="62" stroke="#C9A84C" stroke-width="0.8" stroke-opacity="0.55"/>
  <line x1="71" y1="62" x2="79" y2="62" stroke="#C9A84C" stroke-width="0.8" stroke-opacity="0.55"/>
  <polygon points="60,48 72.1,55 72.1,69 60,76 47.9,69 47.9,55"
    fill="none" stroke="#C9A84C" stroke-width="0.5" stroke-opacity="0.2"/>

  <!-- ── WORDMARK ── -->
  <text x="134" y="50"
    font-family="'Playfair Display', Georgia, serif"
    font-size="27" font-weight="800"
    fill="#FFFFFF" letter-spacing="-0.3">Soluciones</text>

  <text x="134" y="74"
    font-family="'Playfair Display', Georgia, serif"
    font-size="24" font-weight="400" font-style="italic"
    fill="#E8C97A" letter-spacing="0.3">Financieras</text>

  <!-- Rule -->
  <line x1="134" y1="82" x2="390" y2="82" stroke="url(#ruleG)" stroke-width="1"/>

  <!-- Tagline -->
  <text x="134" y="96"
    font-family="'DM Sans', Arial, sans-serif"
    font-size="8.5" font-weight="500"
    fill="#8FA3B8" letter-spacing="1.1">SISTEMA DE GESTIÓN DE PRÉSTAMOS</text>
</svg>
