<svg xmlns="http://www.w3.org/2000/svg" width="120" height="124" viewBox="0 0 120 124">
  <rect width="120" height="124" fill="#FFFFFF"/>
  <polygon points="60,12 103.3,37 103.3,87 60,112 16.7,87 16.7,37"
    fill="none" stroke="#0B1F3A" stroke-width="1.8" stroke-linejoin="round"/>
  <polygon points="60,18 98.1,40 98.1,84 60,106 21.9,84 21.9,40"
    fill="#0B1F3A"/>
  <polygon points="60,24 92.9,43 92.9,81 60,100 27.1,81 27.1,43"
    fill="none" stroke="#FFFFFF" stroke-width="0.7" stroke-opacity="0.3"
    stroke-dasharray="2.8 2.4" stroke-linejoin="round"/>
  <polygon points="60,20.8 62,24 60,27.2 58,24"         fill="#0B1F3A" opacity="0.75"/>
  <polygon points="92.9,39.8 94.9,43 92.9,46.2 90.9,43" fill="#0B1F3A" opacity="0.75"/>
  <polygon points="92.9,77.8 94.9,81 92.9,84.2 90.9,81" fill="#0B1F3A" opacity="0.75"/>
  <polygon points="60,96.8 62,100 60,103.2 58,100"       fill="#0B1F3A" opacity="0.75"/>
  <polygon points="27.1,77.8 29.1,81 27.1,84.2 25.1,81"  fill="#0B1F3A" opacity="0.75"/>
  <polygon points="27.1,39.8 29.1,43 27.1,46.2 25.1,43"  fill="#0B1F3A" opacity="0.75"/>
  <line x1="60" y1="34" x2="60" y2="42" stroke="#0B1F3A" stroke-width="0.9" stroke-opacity="0.5"/>
  <line x1="60" y1="82" x2="60" y2="90" stroke="#0B1F3A" stroke-width="0.9" stroke-opacity="0.5"/>
  <path d="M 53 53 C 50 46, 70 44, 67 53" fill="none" stroke="#FFFFFF" stroke-width="2.4" stroke-linecap="round"/>
  <path d="M 67 53 C 71 59, 49 65, 53 71" fill="none" stroke="#FFFFFF" stroke-width="2.4" stroke-linecap="round"/>
  <path d="M 53 71 C 50 78, 70 80, 67 71" fill="none" stroke="#FFFFFF" stroke-width="2.4" stroke-linecap="round"/>
  <line x1="41" y1="62" x2="49" y2="62" stroke="#0B1F3A" stroke-width="0.8" stroke-opacity="0.55"/>
  <line x1="71" y1="62" x2="79" y2="62" stroke="#0B1F3A" stroke-width="0.8" stroke-opacity="0.55"/>
</svg>
