<svg xmlns="http://www.w3.org/2000/svg" width="24" height="24" viewBox="0 0 24 24" fill="none">
  <path d="M20.28 10.8H12v2.5h4.78c-.2 1.1-.82 2.04-1.74 2.66v2.2h2.82c1.65-1.52 2.6-3.76 2.6-6.4 0-.46-.04-.9-.18-1.36z" fill="#4285F4"/>
  <path d="M12 21c2.42 0 4.45-.8 5.93-2.16l-2.82-2.2c-.78.52-1.78.83-3.1.83-2.38 0-4.4-1.6-5.12-3.78H4.02v2.28A8.98 8.98 0 0 0 12 21z" fill="#34A853"/>
  <path d="M6.88 13.7A5.54 5.54 0 0 1 6.59 12c0-.59.1-1.17.29-1.7V8.02H4.02A8.98 8.98 0 0 0 3 12c0 1.44.34 2.8.94 4.02l2.94-2.32z" fill="#FBBC05"/>
  <path d="M12 6.5c1.34 0 2.54.46 3.48 1.37l2.6-2.6C16.44 3.7 14.42 3 12 3a8.98 8.98 0 0 0-7.98 4.9l2.86 2.28C7.6 8.1 9.62 6.5 12 6.5z" fill="#EA4335"/>
</svg>
